<?xml version="1.0" encoding="UTF-8"?>
<svg xmlns="http://www.w3.org/2000/svg" width="40" height="42">

  <rect width="40" height="42" fill="red" />

  <g stroke="white" stroke-width="2">

    <line x1="0"  y1="40" x2="0"  y2="40" />
    <line x1="0"  y1="38" x2="4"  y2="38" />
    <line x1="0"  y1="36" x2="8"  y2="36" />
    <line x1="0"  y1="34" x2="12" y2="34" />
    <line x1="0"  y1="32" x2="16" y2="32" />
    <line x1="0"  y1="30" x2="20" y2="30" />
    <line x1="0"  y1="28" x2="24" y2="28" />
    <line x1="0"  y1="26" x2="28" y2="26" />
    <line x1="0"  y1="24" x2="32" y2="24" />
    <line x1="0"  y1="22" x2="36" y2="22" />
    <line x1="0"  y1="20" x2="40" y2="20" />
    <line x1="0"  y1="18" x2="36" y2="18" />
    <line x1="0"  y1="16" x2="32" y2="16" />
    <line x1="0"  y1="14" x2="28" y2="14" />
    <line x1="0"  y1="12" x2="24" y2="12" />
    <line x1="0"  y1="10" x2="20" y2="10" />
    <line x1="0"  y1="8"  x2="16" y2="8"  />
    <line x1="0"  y1="6"  x2="12" y2="6"  />
    <line x1="0"  y1="4"  x2="8"  y2="4"  />
    <line x1="0"  y1="2"  x2="4"  y2="2"  />
  </g>
</svg>